<svg width="100" height="37" xmlns="http://www.w3.org/2000/svg"><g fill="#000" fill-rule="nonzero"><path d="M90 9h-3V7h-2v6h2v-2h3v15H72V11h2V9h-2a2 2 0 0 0-2 2v15a2 2 0 0 0 2 2h18a2 2 0 0 0 2-2V11a2 2 0 0 0-2-2z"/><path d="M77 11h7V9h-7V7h-2v6h2zM74 15h4v4h-4zM79 15h4v4h-4zM84 15h4v4h-4zM74 20h4v4h-4zM79 20h4v4h-4zM62 12.8h-5.636v2.8h1.409v2.8h-1.41a1.4 1.4 0 0 0-.963-1.329c-.03-.01-.192-.061-.445-.138V7.2c0-4.2-5.5-4.2-8.455-4.2s-8.455 0-8.455 4.2v9.733c-.253.077-.415.129-.445.138a1.4 1.4 0 0 0-.964 1.329h-1.409v-2.8h1.41v-2.8H31v2.8h1.41v4.2c0 .773.629 1.4 1.408 1.4h2.818v1.4c0 .773.63 1.4 1.41 1.4h7.045v4.2h-4.227V31h11.272v-2.8H47.91V24h7.046c.779 0 1.409-.627 1.409-1.4v-1.4h2.818c.779 0 1.409-.627 1.409-1.4v-4.2H62v-2.8zm-15.5-7c1.97 0 5.636 0 5.636 1.4v1.4H40.864V7.2c0-1.4 3.666-1.4 5.636-1.4zm-5.636 5.6h11.272v4.831c-1.596-.33-3.604-.631-5.636-.631s-4.04.301-5.636.631V11.4zm12.681 9.8h-14.09v-1.753c1.435-.39 4.263-1.047 7.045-1.047s5.61.657 7.045 1.047V21.2z"/><g transform="translate(3 4)"><path d="M13 22.1c-.51 0-.972-.298-1.183-.762C10.929 19.387 6.5 9.502 6.5 6.5 6.5 2.916 9.416 0 13 0s6.5 2.916 6.5 6.5c0 3.002-4.428 12.887-5.317 14.838-.21.464-.672.762-1.183.762zm0-19.5c-2.15 0-3.9 1.75-3.9 3.9 0 1.538 2.07 6.84 3.9 11.085 1.83-4.247 3.9-9.548 3.9-11.085 0-2.15-1.75-3.9-3.9-3.9z"/><circle cx="13" cy="6.5" r="1.95"/><path d="M22.728 26H3.272a2.595 2.595 0 0 1-2.17-1.167 2.589 2.589 0 0 1-.218-2.459l2.785-6.498A2.592 2.592 0 0 1 6.057 14.3h1.07v2.6h-1.07L3.27 23.4h19.457l-2.786-6.5h-1.114v-2.6h1.114c1.043 0 1.98.619 2.39 1.577l2.784 6.499a2.588 2.588 0 0 1-.218 2.454 2.59 2.59 0 0 1-2.17 1.17z"/></g>
<path d="M20 40C8.954 40 0 31.046 0 20S8.954 0 20 0s20 8.954 20 20-8.954 20-20 20zM7.222 21.31l16.618.004c.04-.002.082-.004.124-.004 1.022 0 1.851.81 1.851 1.81s-.829 1.811-1.851 1.811c-.042 0-.083-.001-.124.032l-6.913-.032-2.469.026a2.673 2.673 0 0 0-.37-.026c-1.432 0-2.592 1.135-2.592 2.535 0 1.4 1.16 2.534 2.592 2.534.126 0 .25-.009.37 0l10.37-.025c3.46-.283 6.172-2.92 6.172-6.13 0-1.906-.955-3.61-2.456-4.739a6.049 6.049 0 0 0 1.468-3.95c0-3.36-2.752-6.09-6.172-6.156l-8.888.013A2.297 2.297 0 0 0 14.705 9c-1.227 0-2.222.973-2.222 2.172 0 1.2.995 2.173 2.222 2.173.084 0 .166-.005.247 0l8.888.004c.965.062 1.728.847 1.728 1.806 0 .96-.763 1.744-1.728 1.81H7.222c-1.227 0-2.222.973-2.222 2.173 0 1.2.995 2.172 2.222 2.172z" fill="#FFF" fill-rule="evenodd"/></g></svg>