<?xml version="1.0" encoding="utf-8"?>
<!-- Generator: Adobe Illustrator 21.0.0, SVG Export Plug-In . SVG Version: 6.00 Build 0)  -->
<svg version="1.1" id="Capa_1" xmlns="http://www.w3.org/2000/svg" xmlns:xlink="http://www.w3.org/1999/xlink" x="0px" y="0px"
	 width="129.1px" height="40px" viewBox="0 0 129.1 40" enable-background="new 0 0 129.1 40" xml:space="preserve">

<symbol id="chair">

<path  d="M93.5,14.3v2.8h1.4v2.8h-1.4c0-0.6-0.4-1.1-1-1.3c0,0-0.2-0.1-0.4-0.1V8.7c0-4.2-5.5-4.2-8.5-4.2s-8.5,0-8.5,4.2
	v9.7c-0.3,0.1-0.4,0.1-0.4,0.1c-0.6,0.2-1,0.7-1,1.3h-1.4v-2.8h1.4v-2.8h-5.6v2.8h1.4v4.2c0,0.8,0.6,1.4,1.4,1.4h2.8v1.4
	c0,0.8,0.6,1.4,1.4,1.4h7v4.2H78v2.8h11.3v-2.8H85v-4.2h7c0.8,0,1.4-0.6,1.4-1.4v-1.4h2.8c0.8,0,1.4-0.6,1.4-1.4v-4.2h1.4v-2.8H93.5
	z M78,8.7c0-1.4,3.7-1.4,5.6-1.4c2,0,5.6,0,5.6,1.4v1.4H78V8.7z M78,12.9h11.3v4.8c-1.6-0.3-3.6-0.6-5.6-0.6s-4,0.3-5.6,0.6V12.9z
	 M90.7,22.7H76.6v-1.8c1.4-0.4,4.3-1,7-1s5.6,0.7,7,1V22.7z"/>
</symbol>

<symbol id="pin">
<g>
	<path d="M53.1,27.6c-0.5,0-1-0.3-1.2-0.8c-0.9-2-5.3-11.8-5.3-14.8c0-3.6,2.9-6.5,6.5-6.5s6.5,2.9,6.5,6.5c0,3-4.4,12.9-5.3,14.8
		C54.1,27.3,53.6,27.6,53.1,27.6z M53.1,8.1c-2.2,0-3.9,1.8-3.9,3.9c0,1.5,2.1,6.8,3.9,11.1C55,18.8,57,13.5,57,12
		C57,9.9,55.3,8.1,53.1,8.1z"/>
	<circle cx="53.1" cy="12" r="1.9"/>
	<path d="M62.8,31.5H43.4c-0.9,0-1.7-0.4-2.2-1.2c-0.5-0.7-0.6-1.7-0.2-2.5l2.8-6.5c0.4-1,1.3-1.6,2.4-1.6h1.1v2.6h-1.1l-2.8,6.5
		h19.5l-2.8-6.5h-1.1v-2.6h1.1c1,0,2,0.6,2.4,1.6l2.8,6.5c0.3,0.8,0.3,1.7-0.2,2.5C64.5,31.1,63.7,31.5,62.8,31.5L62.8,31.5z"/>
</g>
</symbol>
<symbol id="logo-campus-boream">
	<path fill="#FFFFFF" d="M20,40C9,40,0,31,0,20S9,0,20,0s20,9,20,20S31,40,20,40z M7.2,21.3l16.6,0
		c0,0,0.1,0,0.1,0c1,0,1.9,0.8,1.9,1.8S25,24.9,24,24.9c0,0-0.1,0-0.1,0l-6.9,0l-2.5,0c-0.1,0-0.2,0-0.4,0c-1.4,0-2.6,1.1-2.6,2.5
		s1.2,2.5,2.6,2.5c0.1,0,0.2,0,0.4,0l10.4,0c3.5-0.3,6.2-2.9,6.2-6.1c0-1.9-1-3.6-2.5-4.7c0.9-1.1,1.5-2.5,1.5-3.9
		c0-3.4-2.8-6.1-6.2-6.2L15,9c-0.1,0-0.2,0-0.2,0c-1.2,0-2.2,1-2.2,2.2c0,1.2,1,2.2,2.2,2.2c0.1,0,0.2,0,0.2,0l8.9,0
		c1,0.1,1.7,0.8,1.7,1.8c0,1-0.8,1.7-1.7,1.8H7.2C6,17,5,17.9,5,19.1S6,21.3,7.2,21.3z"/>
</symbol>
<symbol id="calendar">
<g>
	<path d="M127.1,10.5h-3v-2h-2v6h2v-2h3v15h-18v-15h2v-2h-2c-1.1,0-2,0.9-2,2v15c0,1.1,0.9,2,2,2h18c1.1,0,2-0.9,2-2v-15
		C129.1,11.4,128.2,10.5,127.1,10.5z"/>
	<polygon points="114.1,12.5 121.1,12.5 121.1,10.5 114.1,10.5 114.1,8.5 112.1,8.5 112.1,14.5 114.1,14.5 	"/>
	<rect x="111.1" y="16.5" width="4" height="4"/>
	<rect x="116.1" y="16.5" width="4" height="4"/>
	<rect x="121.1" y="16.5" width="4" height="4"/>
	<rect x="111.1" y="21.5" width="4" height="4"/>
	<rect x="116.1" y="21.5" width="4" height="4"/>
</g>
</symbol>
</svg>
