<svg xmlns="http://www.w3.org/2000/svg">

    <symbol id="chair" viewBox="0 0 44 44">
        <path id="chair" d="M36.2,16.1v4h2v4h-2c0-0.9-0.6-1.6-1.4-1.9c0,0-0.3-0.1-0.6-0.1v-14c0-6-7.8-6-12.1-6S10,2.1,10,8.1v13.8
            c-0.4,0.1-0.6,0.1-0.6,0.1c-0.9,0.3-1.4,1-1.4,1.9H6v-4h2v-4H0v4h2v6c0,1.1,0.9,2,2,2h4v2c0,1.1,0.9,2,2,2h10v6h-5.8v4h16.1v-4h-6.1
            v-6h10c1.1,0,2-0.9,2-2v-2h4c1.1,0,2-0.9,2-2v-6h2v-4h-7.8V16.1z M14.1,8.1c0-2,5.3-2,8-2c2.8,0,8,0,8,2v2H14.1V8.1z M14.1,14.1
            h16.1v6.8c-2.3-0.4-5.1-0.9-8-0.9s-5.7,0.4-8,0.9v-6.8H14.1z M32.2,28.1H12.1v-2.6c2-0.6,6.1-1.4,10-1.4s8,1,10,1.4v2.6H32.2z"/>
    </symbol>
        
    <symbol id="pin" viewBox="0 0 44 44">
        <path d="M22,37.4c-0.8,0-1.7-0.5-2-1.4c-1.5-3.4-9-20-9-25c0-6.1,4.9-11,11-11s11,4.9,11,11c0,5.1-7.4,21.8-9,25
                C23.6,36.9,22.8,37.4,22,37.4z M22,4.4c-3.7,0-6.6,3-6.6,6.6c0,2.5,3.6,11.5,6.6,18.8c3.2-7.3,6.6-16.2,6.6-18.8
                C28.6,7.4,25.7,4.4,22,4.4z"/>
        <circle cx="22" cy="11" r="3.2"/>
        <path d="M38.4,44H5.5c-1.5,0-2.9-0.7-3.7-2c-0.8-1.2-1-2.9-0.3-4.2l4.7-11C6.9,25,8.4,24,10.3,24h1.9v4.4h-1.9l-4.7,11h33l-4.7-11
            h-1.9V24h1.9c1.7,0,3.4,1,4.1,2.7l4.7,11c0.5,1.4,0.5,2.9-0.3,4.2C41.2,43.3,39.9,44,38.4,44L38.4,44z"/>
    </symbol>

    <symbol id="logo-campus-boream" viewBox="0 0 44 44">
        <path d="M22,44C9.9,44,0,34.1,0,22S9.9,0,22,0s22,9.9,22,22S34.1,44,22,44z M7.9,23.4h18.3h0.1
            c1.1,0,2.1,0.9,2.1,2s-0.9,2-2,2h-0.1h-7.6h-2.8c-0.1,0-0.2,0-0.4,0c-1.5,0-2.9,1.2-2.9,2.8s1.3,2.8,2.9,2.8c0.1,0,0.2,0,0.4,0h11.4
            c3.9-0.3,6.8-3.2,6.8-6.7c0-2.1-1.1-4-2.8-5.2c1-1.2,1.6-2.8,1.6-4.3c0-3.7-3.1-6.7-6.8-6.8l-9.8,0c-0.1,0-0.2,0-0.2,0
            c-1.3,0-2.4,1.1-2.4,2.4s1.1,2.4,2.4,2.4c0.1,0,0.2,0,0.2,0h9.8c1.1,0.1,1.9,0.9,1.9,2c0,1.1-0.9,1.9-1.9,2H7.9
            c-1.3,0-2.4,1-2.4,2.3S6.6,23.4,7.9,23.4z"/>    
    </symbol>

    <symbol id="calendar" viewBox="0 0 44 44">
        <path d="M40,5h-6V1h-4v12h4V9h6v30H4V9h4V5H4C1.8,5,0,6.8,0,9v30c0,2.2,1.8,4,4,4h36c2.2,0,4-1.8,4-4V9C44,6.8,42.2,5,40,5z"/>
        <polygon points="14,9 28,9 28,5 14,5 14,1 10,1 10,13 14,13 	"/>
        <rect x="8" y="17" width="8" height="8"/>
        <rect x="18" y="17" width="8" height="8"/>
        <rect x="28" y="17" width="8" height="8"/>
        <rect x="8" y="27" width="8" height="8"/>
        <rect x="18" y="27" width="8" height="8"/>
    </symbol>

</svg>
